<svg width="1254" height="48" viewBox="0 0 1254 48" fill="none" xmlns="http://www.w3.org/2000/svg">
<g filter="url(#filter0_i)">
<rect width="1254" height="48" fill="white"/>
</g>
<rect x="3" y="3" width="1248" height="42" stroke="#FFC702" stroke-width="6"/>
<path d="M376.79 25.6504V34H373.978V12.6719H381.844C384.178 12.6719 386.004 13.2676 387.322 14.459C388.65 15.6504 389.314 17.2275 389.314 19.1904C389.314 21.2607 388.665 22.8574 387.366 23.9805C386.077 25.0938 384.227 25.6504 381.814 25.6504H376.79ZM376.79 23.3506H381.844C383.348 23.3506 384.5 22.999 385.301 22.2959C386.102 21.583 386.502 20.5576 386.502 19.2197C386.502 17.9502 386.102 16.9346 385.301 16.1729C384.5 15.4111 383.401 15.0156 382.005 14.9863H376.79V23.3506ZM395.423 34H392.713V11.5H395.423V34ZM406.351 34.293C404.202 34.293 402.454 33.5898 401.106 32.1836C399.759 30.7676 399.085 28.8779 399.085 26.5146V26.0166C399.085 24.4443 399.383 23.043 399.979 21.8125C400.584 20.5723 401.424 19.6055 402.498 18.9121C403.582 18.209 404.754 17.8574 406.014 17.8574C408.074 17.8574 409.676 18.5361 410.818 19.8936C411.961 21.251 412.532 23.1943 412.532 25.7236V26.8516H401.795C401.834 28.4141 402.288 29.6787 403.157 30.6455C404.036 31.6025 405.149 32.0811 406.497 32.0811C407.454 32.0811 408.265 31.8857 408.929 31.4951C409.593 31.1045 410.174 30.5869 410.672 29.9424L412.327 31.2314C410.999 33.2725 409.007 34.293 406.351 34.293ZM406.014 20.084C404.92 20.084 404.002 20.4844 403.26 21.2852C402.518 22.0762 402.059 23.1895 401.883 24.625H409.822V24.4199C409.744 23.043 409.373 21.9785 408.709 21.2266C408.045 20.4648 407.146 20.084 406.014 20.084ZM425.467 34C425.311 33.6875 425.184 33.1309 425.086 32.3301C423.826 33.6387 422.322 34.293 420.574 34.293C419.012 34.293 417.728 33.8535 416.722 32.9746C415.726 32.0859 415.228 30.9629 415.228 29.6055C415.228 27.9551 415.853 26.6758 417.103 25.7676C418.362 24.8496 420.13 24.3906 422.405 24.3906H425.042V23.1455C425.042 22.1982 424.759 21.4463 424.192 20.8896C423.626 20.3232 422.791 20.04 421.688 20.04C420.721 20.04 419.91 20.2842 419.256 20.7725C418.602 21.2607 418.274 21.8516 418.274 22.5449H415.55C415.55 21.7539 415.828 20.9922 416.385 20.2598C416.951 19.5176 417.713 18.9316 418.67 18.502C419.637 18.0723 420.696 17.8574 421.849 17.8574C423.675 17.8574 425.105 18.3164 426.141 19.2344C427.176 20.1426 427.713 21.3975 427.752 22.999V30.2939C427.752 31.749 427.938 32.9062 428.309 33.7656V34H425.467ZM420.97 31.9346C421.819 31.9346 422.625 31.7148 423.387 31.2754C424.148 30.8359 424.7 30.2646 425.042 29.5615V26.3096H422.918C419.598 26.3096 417.938 27.2812 417.938 29.2246C417.938 30.0742 418.221 30.7383 418.787 31.2168C419.354 31.6953 420.081 31.9346 420.97 31.9346ZM441.229 29.7959C441.229 29.0635 440.95 28.4971 440.394 28.0967C439.847 27.6865 438.885 27.335 437.508 27.042C436.141 26.749 435.052 26.3975 434.241 25.9873C433.44 25.5771 432.845 25.0889 432.454 24.5225C432.073 23.9561 431.883 23.2822 431.883 22.501C431.883 21.2021 432.43 20.1035 433.523 19.2051C434.627 18.3066 436.033 17.8574 437.742 17.8574C439.539 17.8574 440.994 18.3213 442.107 19.249C443.23 20.1768 443.792 21.3633 443.792 22.8086H441.067C441.067 22.0664 440.75 21.4268 440.115 20.8896C439.49 20.3525 438.699 20.084 437.742 20.084C436.756 20.084 435.984 20.2988 435.428 20.7285C434.871 21.1582 434.593 21.7197 434.593 22.4131C434.593 23.0674 434.852 23.5605 435.369 23.8926C435.887 24.2246 436.819 24.542 438.167 24.8447C439.524 25.1475 440.623 25.5088 441.463 25.9287C442.303 26.3486 442.923 26.8564 443.323 27.4521C443.733 28.0381 443.938 28.7559 443.938 29.6055C443.938 31.0215 443.372 32.1592 442.239 33.0186C441.106 33.8682 439.637 34.293 437.83 34.293C436.561 34.293 435.438 34.0684 434.461 33.6191C433.484 33.1699 432.718 32.5449 432.161 31.7441C431.614 30.9336 431.341 30.0596 431.341 29.1221H434.051C434.1 30.0303 434.461 30.7529 435.135 31.29C435.818 31.8174 436.717 32.0811 437.83 32.0811C438.855 32.0811 439.676 31.876 440.291 31.4658C440.916 31.0459 441.229 30.4893 441.229 29.7959ZM454.046 34.293C451.897 34.293 450.149 33.5898 448.802 32.1836C447.454 30.7676 446.78 28.8779 446.78 26.5146V26.0166C446.78 24.4443 447.078 23.043 447.674 21.8125C448.279 20.5723 449.119 19.6055 450.193 18.9121C451.277 18.209 452.449 17.8574 453.709 17.8574C455.77 17.8574 457.371 18.5361 458.514 19.8936C459.656 21.251 460.228 23.1943 460.228 25.7236V26.8516H449.49C449.529 28.4141 449.983 29.6787 450.853 30.6455C451.731 31.6025 452.845 32.0811 454.192 32.0811C455.149 32.0811 455.96 31.8857 456.624 31.4951C457.288 31.1045 457.869 30.5869 458.367 29.9424L460.022 31.2314C458.694 33.2725 456.702 34.293 454.046 34.293ZM453.709 20.084C452.615 20.084 451.697 20.4844 450.955 21.2852C450.213 22.0762 449.754 23.1895 449.578 24.625H457.518V24.4199C457.439 23.043 457.068 21.9785 456.404 21.2266C455.74 20.4648 454.842 20.084 453.709 20.084ZM473.367 18.1504L473.44 19.9082C474.603 18.541 476.17 17.8574 478.143 17.8574C480.359 17.8574 481.868 18.707 482.669 20.4062C483.196 19.6445 483.88 19.0293 484.72 18.5605C485.569 18.0918 486.57 17.8574 487.723 17.8574C491.199 17.8574 492.967 19.6982 493.025 23.3799V34H490.315V23.541C490.315 22.4082 490.057 21.5635 489.539 21.0068C489.021 20.4404 488.152 20.1572 486.932 20.1572C485.926 20.1572 485.091 20.46 484.427 21.0654C483.763 21.6611 483.377 22.4668 483.27 23.4824V34H480.545V23.6143C480.545 21.3096 479.417 20.1572 477.161 20.1572C475.384 20.1572 474.168 20.9141 473.514 22.4277V34H470.804V18.1504H473.367ZM506.912 34C506.756 33.6875 506.629 33.1309 506.531 32.3301C505.271 33.6387 503.768 34.293 502.02 34.293C500.457 34.293 499.173 33.8535 498.167 32.9746C497.171 32.0859 496.673 30.9629 496.673 29.6055C496.673 27.9551 497.298 26.6758 498.548 25.7676C499.808 24.8496 501.575 24.3906 503.851 24.3906H506.487V23.1455C506.487 22.1982 506.204 21.4463 505.638 20.8896C505.071 20.3232 504.236 20.04 503.133 20.04C502.166 20.04 501.355 20.2842 500.701 20.7725C500.047 21.2607 499.72 21.8516 499.72 22.5449H496.995C496.995 21.7539 497.273 20.9922 497.83 20.2598C498.396 19.5176 499.158 18.9316 500.115 18.502C501.082 18.0723 502.142 17.8574 503.294 17.8574C505.12 17.8574 506.551 18.3164 507.586 19.2344C508.621 20.1426 509.158 21.3975 509.197 22.999V30.2939C509.197 31.749 509.383 32.9062 509.754 33.7656V34H506.912ZM502.415 31.9346C503.265 31.9346 504.07 31.7148 504.832 31.2754C505.594 30.8359 506.146 30.2646 506.487 29.5615V26.3096H504.363C501.043 26.3096 499.383 27.2812 499.383 29.2246C499.383 30.0742 499.666 30.7383 500.232 31.2168C500.799 31.6953 501.526 31.9346 502.415 31.9346ZM517.869 26.6611L516.17 28.4336V34H513.46V11.5H516.17V25.1084L517.62 23.3652L522.557 18.1504H525.853L519.686 24.7715L526.57 34H523.392L517.869 26.6611ZM534.935 34.293C532.786 34.293 531.038 33.5898 529.69 32.1836C528.343 30.7676 527.669 28.8779 527.669 26.5146V26.0166C527.669 24.4443 527.967 23.043 528.562 21.8125C529.168 20.5723 530.008 19.6055 531.082 18.9121C532.166 18.209 533.338 17.8574 534.598 17.8574C536.658 17.8574 538.26 18.5361 539.402 19.8936C540.545 21.251 541.116 23.1943 541.116 25.7236V26.8516H530.379C530.418 28.4141 530.872 29.6787 531.741 30.6455C532.62 31.6025 533.733 32.0811 535.081 32.0811C536.038 32.0811 536.849 31.8857 537.513 31.4951C538.177 31.1045 538.758 30.5869 539.256 29.9424L540.911 31.2314C539.583 33.2725 537.591 34.293 534.935 34.293ZM534.598 20.084C533.504 20.084 532.586 20.4844 531.844 21.2852C531.102 22.0762 530.643 23.1895 530.467 24.625H538.406V24.4199C538.328 23.043 537.957 21.9785 537.293 21.2266C536.629 20.4648 535.73 20.084 534.598 20.084ZM561.492 34C561.336 33.6875 561.209 33.1309 561.111 32.3301C559.852 33.6387 558.348 34.293 556.6 34.293C555.037 34.293 553.753 33.8535 552.747 32.9746C551.751 32.0859 551.253 30.9629 551.253 29.6055C551.253 27.9551 551.878 26.6758 553.128 25.7676C554.388 24.8496 556.155 24.3906 558.431 24.3906H561.067V23.1455C561.067 22.1982 560.784 21.4463 560.218 20.8896C559.651 20.3232 558.816 20.04 557.713 20.04C556.746 20.04 555.936 20.2842 555.281 20.7725C554.627 21.2607 554.3 21.8516 554.3 22.5449H551.575C551.575 21.7539 551.854 20.9922 552.41 20.2598C552.977 19.5176 553.738 18.9316 554.695 18.502C555.662 18.0723 556.722 17.8574 557.874 17.8574C559.7 17.8574 561.131 18.3164 562.166 19.2344C563.201 20.1426 563.738 21.3975 563.777 22.999V30.2939C563.777 31.749 563.963 32.9062 564.334 33.7656V34H561.492ZM556.995 31.9346C557.845 31.9346 558.65 31.7148 559.412 31.2754C560.174 30.8359 560.726 30.2646 561.067 29.5615V26.3096H558.943C555.623 26.3096 553.963 27.2812 553.963 29.2246C553.963 30.0742 554.246 30.7383 554.812 31.2168C555.379 31.6953 556.106 31.9346 556.995 31.9346ZM575.892 34V12.6719H582.864C585.179 12.6719 586.917 13.1504 588.079 14.1074C589.251 15.0645 589.837 16.4805 589.837 18.3555C589.837 19.3516 589.554 20.2354 588.987 21.0068C588.421 21.7686 587.649 22.3594 586.673 22.7793C587.825 23.1016 588.733 23.7168 589.397 24.625C590.071 25.5234 590.408 26.5977 590.408 27.8477C590.408 29.7617 589.788 31.2656 588.548 32.3594C587.308 33.4531 585.555 34 583.289 34H575.892ZM578.704 24.0244V31.7002H583.348C584.656 31.7002 585.687 31.3633 586.438 30.6895C587.2 30.0059 587.581 29.0684 587.581 27.877C587.581 25.3086 586.185 24.0244 583.392 24.0244H578.704ZM578.704 21.7686H582.952C584.183 21.7686 585.164 21.4609 585.896 20.8457C586.639 20.2305 587.01 19.3955 587.01 18.3408C587.01 17.1689 586.668 16.3193 585.984 15.792C585.301 15.2549 584.261 14.9863 582.864 14.9863H578.704V21.7686ZM600.735 34.293C598.587 34.293 596.839 33.5898 595.491 32.1836C594.144 30.7676 593.47 28.8779 593.47 26.5146V26.0166C593.47 24.4443 593.768 23.043 594.363 21.8125C594.969 20.5723 595.809 19.6055 596.883 18.9121C597.967 18.209 599.139 17.8574 600.398 17.8574C602.459 17.8574 604.061 18.5361 605.203 19.8936C606.346 21.251 606.917 23.1943 606.917 25.7236V26.8516H596.18C596.219 28.4141 596.673 29.6787 597.542 30.6455C598.421 31.6025 599.534 32.0811 600.882 32.0811C601.839 32.0811 602.649 31.8857 603.313 31.4951C603.978 31.1045 604.559 30.5869 605.057 29.9424L606.712 31.2314C605.384 33.2725 603.392 34.293 600.735 34.293ZM600.398 20.084C599.305 20.084 598.387 20.4844 597.645 21.2852C596.902 22.0762 596.443 23.1895 596.268 24.625H604.207V24.4199C604.129 23.043 603.758 21.9785 603.094 21.2266C602.43 20.4648 601.531 20.084 600.398 20.084ZM613.743 14.3125V18.1504H616.702V20.2451H613.743V30.0742C613.743 30.709 613.875 31.1875 614.139 31.5098C614.402 31.8223 614.852 31.9785 615.486 31.9785C615.799 31.9785 616.229 31.9199 616.775 31.8027V34C616.062 34.1953 615.369 34.293 614.695 34.293C613.484 34.293 612.571 33.9268 611.956 33.1943C611.341 32.4619 611.033 31.4219 611.033 30.0742V20.2451H608.147V18.1504H611.033V14.3125H613.743ZM619.939 32.5791C619.939 32.1104 620.076 31.7197 620.35 31.4072C620.633 31.0947 621.053 30.9385 621.609 30.9385C622.166 30.9385 622.586 31.0947 622.869 31.4072C623.162 31.7197 623.309 32.1104 623.309 32.5791C623.309 33.0283 623.162 33.4043 622.869 33.707C622.586 34.0098 622.166 34.1611 621.609 34.1611C621.053 34.1611 620.633 34.0098 620.35 33.707C620.076 33.4043 619.939 33.0283 619.939 32.5791ZM639.29 12.6719L646.263 30.0742L653.235 12.6719H656.883V34H654.07V25.6943L654.334 16.7295L647.332 34H645.179L638.191 16.7734L638.47 25.6943V34H635.657V12.6719H639.29ZM664.368 34H661.658V18.1504H664.368V34ZM661.438 13.9463C661.438 13.5068 661.57 13.1357 661.834 12.833C662.107 12.5303 662.508 12.3789 663.035 12.3789C663.562 12.3789 663.963 12.5303 664.236 12.833C664.51 13.1357 664.646 13.5068 664.646 13.9463C664.646 14.3857 664.51 14.752 664.236 15.0449C663.963 15.3379 663.562 15.4844 663.035 15.4844C662.508 15.4844 662.107 15.3379 661.834 15.0449C661.57 14.752 661.438 14.3857 661.438 13.9463ZM671.282 18.1504L671.37 20.1426C672.581 18.6191 674.163 17.8574 676.116 17.8574C679.466 17.8574 681.155 19.7471 681.185 23.5264V34H678.475V23.5117C678.465 22.3691 678.201 21.5244 677.684 20.9775C677.176 20.4307 676.38 20.1572 675.296 20.1572C674.417 20.1572 673.646 20.3916 672.981 20.8604C672.317 21.3291 671.8 21.9443 671.429 22.7061V34H668.719V18.1504H671.282ZM688.216 34H685.506V18.1504H688.216V34ZM685.286 13.9463C685.286 13.5068 685.418 13.1357 685.682 12.833C685.955 12.5303 686.355 12.3789 686.883 12.3789C687.41 12.3789 687.811 12.5303 688.084 12.833C688.357 13.1357 688.494 13.5068 688.494 13.9463C688.494 14.3857 688.357 14.752 688.084 15.0449C687.811 15.3379 687.41 15.4844 686.883 15.4844C686.355 15.4844 685.955 15.3379 685.682 15.0449C685.418 14.752 685.286 14.3857 685.286 13.9463ZM695.115 18.1504L695.188 19.9082C696.351 18.541 697.918 17.8574 699.891 17.8574C702.107 17.8574 703.616 18.707 704.417 20.4062C704.944 19.6445 705.628 19.0293 706.468 18.5605C707.317 18.0918 708.318 17.8574 709.471 17.8574C712.947 17.8574 714.715 19.6982 714.773 23.3799V34H712.063V23.541C712.063 22.4082 711.805 21.5635 711.287 21.0068C710.77 20.4404 709.9 20.1572 708.68 20.1572C707.674 20.1572 706.839 20.46 706.175 21.0654C705.511 21.6611 705.125 22.4668 705.018 23.4824V34H702.293V23.6143C702.293 21.3096 701.165 20.1572 698.909 20.1572C697.132 20.1572 695.916 20.9141 695.262 22.4277V34H692.552V18.1504H695.115ZM728.66 32.4326C727.605 33.6729 726.058 34.293 724.017 34.293C722.327 34.293 721.038 33.8047 720.149 32.8281C719.271 31.8418 718.826 30.3867 718.816 28.4629V18.1504H721.526V28.3896C721.526 30.792 722.503 31.9932 724.456 31.9932C726.526 31.9932 727.903 31.2217 728.587 29.6787V18.1504H731.297V34H728.719L728.66 32.4326ZM737.977 18.1504L738.05 19.9082C739.212 18.541 740.779 17.8574 742.752 17.8574C744.969 17.8574 746.478 18.707 747.278 20.4062C747.806 19.6445 748.489 19.0293 749.329 18.5605C750.179 18.0918 751.18 17.8574 752.332 17.8574C755.809 17.8574 757.576 19.6982 757.635 23.3799V34H754.925V23.541C754.925 22.4082 754.666 21.5635 754.148 21.0068C753.631 20.4404 752.762 20.1572 751.541 20.1572C750.535 20.1572 749.7 20.46 749.036 21.0654C748.372 21.6611 747.986 22.4668 747.879 23.4824V34H745.154V23.6143C745.154 21.3096 744.026 20.1572 741.771 20.1572C739.993 20.1572 738.777 20.9141 738.123 22.4277V34H735.413V18.1504H737.977ZM769.603 34V12.6719H776.575C778.89 12.6719 780.628 13.1504 781.79 14.1074C782.962 15.0645 783.548 16.4805 783.548 18.3555C783.548 19.3516 783.265 20.2354 782.698 21.0068C782.132 21.7686 781.36 22.3594 780.384 22.7793C781.536 23.1016 782.444 23.7168 783.108 24.625C783.782 25.5234 784.119 26.5977 784.119 27.8477C784.119 29.7617 783.499 31.2656 782.259 32.3594C781.019 33.4531 779.266 34 777 34H769.603ZM772.415 24.0244V31.7002H777.059C778.367 31.7002 779.397 31.3633 780.149 30.6895C780.911 30.0059 781.292 29.0684 781.292 27.877C781.292 25.3086 779.896 24.0244 777.103 24.0244H772.415ZM772.415 21.7686H776.663C777.894 21.7686 778.875 21.4609 779.607 20.8457C780.35 20.2305 780.721 19.3955 780.721 18.3408C780.721 17.1689 780.379 16.3193 779.695 15.792C779.012 15.2549 777.972 14.9863 776.575 14.9863H772.415V21.7686ZM794.446 34.293C792.298 34.293 790.55 33.5898 789.202 32.1836C787.854 30.7676 787.181 28.8779 787.181 26.5146V26.0166C787.181 24.4443 787.479 23.043 788.074 21.8125C788.68 20.5723 789.52 19.6055 790.594 18.9121C791.678 18.209 792.85 17.8574 794.109 17.8574C796.17 17.8574 797.771 18.5361 798.914 19.8936C800.057 21.251 800.628 23.1943 800.628 25.7236V26.8516H789.891C789.93 28.4141 790.384 29.6787 791.253 30.6455C792.132 31.6025 793.245 32.0811 794.593 32.0811C795.55 32.0811 796.36 31.8857 797.024 31.4951C797.688 31.1045 798.27 30.5869 798.768 29.9424L800.423 31.2314C799.095 33.2725 797.103 34.293 794.446 34.293ZM794.109 20.084C793.016 20.084 792.098 20.4844 791.355 21.2852C790.613 22.0762 790.154 23.1895 789.979 24.625H797.918V24.4199C797.84 23.043 797.469 21.9785 796.805 21.2266C796.141 20.4648 795.242 20.084 794.109 20.084ZM807.454 14.3125V18.1504H810.413V20.2451H807.454V30.0742C807.454 30.709 807.586 31.1875 807.85 31.5098C808.113 31.8223 808.562 31.9785 809.197 31.9785C809.51 31.9785 809.939 31.9199 810.486 31.8027V34C809.773 34.1953 809.08 34.293 808.406 34.293C807.195 34.293 806.282 33.9268 805.667 33.1943C805.052 32.4619 804.744 31.4219 804.744 30.0742V20.2451H801.858V18.1504H804.744V14.3125H807.454ZM823.978 34H821.268V18.1504H823.978V34ZM821.048 13.9463C821.048 13.5068 821.18 13.1357 821.443 12.833C821.717 12.5303 822.117 12.3789 822.645 12.3789C823.172 12.3789 823.572 12.5303 823.846 12.833C824.119 13.1357 824.256 13.5068 824.256 13.9463C824.256 14.3857 824.119 14.752 823.846 15.0449C823.572 15.3379 823.172 15.4844 822.645 15.4844C822.117 15.4844 821.717 15.3379 821.443 15.0449C821.18 14.752 821.048 14.3857 821.048 13.9463ZM837.557 29.7959C837.557 29.0635 837.278 28.4971 836.722 28.0967C836.175 27.6865 835.213 27.335 833.836 27.042C832.469 26.749 831.38 26.3975 830.569 25.9873C829.769 25.5771 829.173 25.0889 828.782 24.5225C828.401 23.9561 828.211 23.2822 828.211 22.501C828.211 21.2021 828.758 20.1035 829.852 19.2051C830.955 18.3066 832.361 17.8574 834.07 17.8574C835.867 17.8574 837.322 18.3213 838.436 19.249C839.559 20.1768 840.12 21.3633 840.12 22.8086H837.396C837.396 22.0664 837.078 21.4268 836.443 20.8896C835.818 20.3525 835.027 20.084 834.07 20.084C833.084 20.084 832.312 20.2988 831.756 20.7285C831.199 21.1582 830.921 21.7197 830.921 22.4131C830.921 23.0674 831.18 23.5605 831.697 23.8926C832.215 24.2246 833.147 24.542 834.495 24.8447C835.853 25.1475 836.951 25.5088 837.791 25.9287C838.631 26.3486 839.251 26.8564 839.651 27.4521C840.062 28.0381 840.267 28.7559 840.267 29.6055C840.267 31.0215 839.7 32.1592 838.567 33.0186C837.435 33.8682 835.965 34.293 834.158 34.293C832.889 34.293 831.766 34.0684 830.789 33.6191C829.812 33.1699 829.046 32.5449 828.489 31.7441C827.942 30.9336 827.669 30.0596 827.669 29.1221H830.379C830.428 30.0303 830.789 30.7529 831.463 31.29C832.146 31.8174 833.045 32.0811 834.158 32.0811C835.184 32.0811 836.004 31.876 836.619 31.4658C837.244 31.0459 837.557 30.4893 837.557 29.7959ZM856.189 22.0762H843.973V19.7178H856.189V22.0762ZM856.189 28.1553H843.973V25.8115H856.189V28.1553ZM876.331 34H873.606V15.9385L868.143 17.9453V15.4844L875.906 12.5693H876.331V34Z" fill="black"/>
<defs>
<filter id="filter0_i" x="0" y="-10" width="1254" height="58" filterUnits="userSpaceOnUse" color-interpolation-filters="sRGB">
<feFlood flood-opacity="0" result="BackgroundImageFix"/>
<feBlend mode="normal" in="SourceGraphic" in2="BackgroundImageFix" result="shape"/>
<feColorMatrix in="SourceAlpha" type="matrix" values="0 0 0 0 0 0 0 0 0 0 0 0 0 0 0 0 0 0 127 0" result="hardAlpha"/>
<feOffset dy="-10"/>
<feGaussianBlur stdDeviation="5"/>
<feComposite in2="hardAlpha" operator="arithmetic" k2="-1" k3="1"/>
<feColorMatrix type="matrix" values="0 0 0 0 0.958333 0 0 0 0 0.838861 0 0 0 0 0.415278 0 0 0 1 0"/>
<feBlend mode="normal" in2="shape" result="effect1_innerShadow"/>
</filter>
</defs>
</svg>
